<?xml version="1.0" encoding="UTF-8" standalone="no"?><!-- Generator: Gravit.io --><svg xmlns="http://www.w3.org/2000/svg" xmlns:xlink="http://www.w3.org/1999/xlink" style="isolation:isolate" viewBox="0 0 512 512" width="512pt" height="512pt"><defs><clipPath id="_clipPath_LZBJKeK85eRPjpVUQOypBfewYQHvtoo2"><rect width="512" height="512"/></clipPath></defs><g clip-path="url(#_clipPath_LZBJKeK85eRPjpVUQOypBfewYQHvtoo2)"><path d=" M 312.055 159.905 L 376.118 159.905 L 376.118 352.095 L 312.055 352.095 L 312.055 159.905 L 312.055 159.905 Z  M 83.45 53 L 428.55 53 C 445.356 53 459 66.644 459 83.45 L 459 428.55 C 459 445.356 445.356 459 428.55 459 L 83.45 459 C 66.644 459 53 445.356 53 428.55 L 53 83.45 C 53 66.644 66.644 53 83.45 53 L 83.45 53 Z  M 135.882 159.905 L 199.945 159.905 L 199.945 352.095 L 135.882 352.095 L 135.882 159.905 Z " fill-rule="evenodd" fill="rgb(255,255,255)"/></g></svg>