<?xml version="1.0" encoding="UTF-8" standalone="no"?><!-- Generator: Gravit.io --><svg xmlns="http://www.w3.org/2000/svg" xmlns:xlink="http://www.w3.org/1999/xlink" style="isolation:isolate" viewBox="0 0 512 512" width="512pt" height="512pt"><defs><clipPath id="_clipPath_NHJ8iKjKtORwUCmXDqKYp5oelmpuCUYS"><rect width="512" height="512"/></clipPath></defs><g clip-path="url(#_clipPath_NHJ8iKjKtORwUCmXDqKYp5oelmpuCUYS)"><defs><filter id="RlI8bC5tC8ePIPyNL7IhQjllK1x7sD5E" x="-200%" y="-200%" width="400%" height="400%" filterUnits="objectBoundingBox" color-interpolation-filters="sRGB"><feGaussianBlur xmlns="http://www.w3.org/2000/svg" in="SourceGraphic" stdDeviation="4.293609062839028"/><feOffset xmlns="http://www.w3.org/2000/svg" dx="10" dy="10" result="pf_100_offsetBlur"/><feFlood xmlns="http://www.w3.org/2000/svg" flood-color="#000000" flood-opacity="0.08"/><feComposite xmlns="http://www.w3.org/2000/svg" in2="pf_100_offsetBlur" operator="in" result="pf_100_dropShadow"/><feBlend xmlns="http://www.w3.org/2000/svg" in="SourceGraphic" in2="pf_100_dropShadow" mode="normal"/></filter><linearGradient id="_lgradient_0" x1="0.1464466094067262" y1="0.14644660940672627" x2="0.8535533905932737" y2="0.8535533905932737"><stop offset="0%" style="stop-color:#9146FF"/><stop offset="100%" style="stop-color:#B546FF"/></linearGradient></defs><g filter="url(#RlI8bC5tC8ePIPyNL7IhQjllK1x7sD5E)"><path d="M 74.95 43 L 437.05 43 C 454.684 43 469 57.316 469 74.95 L 469 437.05 C 469 454.684 454.684 469 437.05 469 L 74.95 469 C 57.316 469 43 454.684 43 437.05 L 43 74.95 C 43 57.316 57.316 43 74.95 43 Z" style="stroke:none;fill:url(#_lgradient_0);stroke-miterlimit:10;"/></g><defs><filter id="4Qq6Mv4HTAQUlMEiaZZqZtD6DzEj7766" x="-200%" y="-200%" width="400%" height="400%" filterUnits="objectBoundingBox" color-interpolation-filters="sRGB"><feGaussianBlur xmlns="http://www.w3.org/2000/svg" in="SourceGraphic" stdDeviation="6.011052687974639"/><feOffset xmlns="http://www.w3.org/2000/svg" dx="15" dy="15" result="pf_100_offsetBlur"/><feFlood xmlns="http://www.w3.org/2000/svg" flood-color="#000000" flood-opacity="0.08"/><feComposite xmlns="http://www.w3.org/2000/svg" in2="pf_100_offsetBlur" operator="in" result="pf_100_dropShadow"/><feBlend xmlns="http://www.w3.org/2000/svg" in="SourceGraphic" in2="pf_100_dropShadow" mode="normal"/></filter><linearGradient id="_lgradient_1" x1="0.1464466094067262" y1="0.14644660940672627" x2="0.8535533905932737" y2="0.8535533905932737"><stop offset="0%" style="stop-color:#FFFFFF"/><stop offset="100%" style="stop-color:#EFDDFF"/></linearGradient></defs><g filter="url(#4Qq6Mv4HTAQUlMEiaZZqZtD6DzEj7766)"><path d="M 124.492 101.285 L 387.508 101.285 C 400.316 101.285 410.715 111.684 410.715 124.492 L 410.715 387.508 C 410.715 400.316 400.316 410.715 387.508 410.715 L 124.492 410.715 C 111.684 410.715 101.285 400.316 101.285 387.508 L 101.285 124.492 C 101.285 111.684 111.684 101.285 124.492 101.285 Z" style="stroke:none;fill:url(#_lgradient_1);stroke-miterlimit:10;"/></g><linearGradient id="_lgradient_2" x1="0.1464466094067262" y1="0.14644660940672627" x2="0.8535533905932737" y2="0.8535533905932737" gradientTransform="matrix(48.825,0,0,146.476,298.722,182.762)" gradientUnits="userSpaceOnUse"><stop offset="0%" stop-opacity="1" style="stop-color:rgb(145,70,255)"/><stop offset="100%" stop-opacity="1" style="stop-color:rgb(170,70,255)"/></linearGradient><rect x="298.722" y="182.762" width="48.825" height="146.476" transform="matrix(1,0,0,1,0,0)" fill="url(#_lgradient_2)"/><linearGradient id="_lgradient_3" x1="0.1464466094067262" y1="0.14644660940672627" x2="0.8535533905932737" y2="0.8535533905932737" gradientTransform="matrix(48.825,0,0,146.476,164.453,182.762)" gradientUnits="userSpaceOnUse"><stop offset="0%" stop-opacity="1" style="stop-color:rgb(145,70,255)"/><stop offset="100%" stop-opacity="1" style="stop-color:rgb(170,70,255)"/></linearGradient><rect x="164.453" y="182.762" width="48.825" height="146.476" transform="matrix(1,0,0,1,0,0)" fill="url(#_lgradient_3)"/></g></svg>